<?xml version="1.0" encoding="UTF-8" standalone="no"?>
<!-- Generator: Adobe Illustrator 18.0.0, SVG Export Plug-In . SVG Version: 6.00 Build 0)  -->

<svg
   xmlns:dc="http://purl.org/dc/elements/1.1/"
   xmlns:cc="http://creativecommons.org/ns#"
   xmlns:rdf="http://www.w3.org/1999/02/22-rdf-syntax-ns#"
   xmlns:svg="http://www.w3.org/2000/svg"
   xmlns="http://www.w3.org/2000/svg"
   xmlns:sodipodi="http://sodipodi.sourceforge.net/DTD/sodipodi-0.dtd"
   xmlns:inkscape="http://www.inkscape.org/namespaces/inkscape"
   version="1.1"
   id="Capa_1"
   x="0px"
   y="0px"
   viewBox="0 0 173.888 173.888"
   style="enable-background:new 0 0 173.888 173.888;"
   xml:space="preserve"
   sodipodi:docname="xylophone.svg"
   inkscape:export-filename="/Users/guilhem/Documents/partitions/metallophone/xylophone_cover.png"
   inkscape:export-xdpi="600"
   inkscape:export-ydpi="600"
   inkscape:version="0.92.2 5c3e80d, 2017-08-06"><metadata
     id="metadata109"><rdf:RDF><cc:Work
         rdf:about=""><dc:format>image/svg+xml</dc:format><dc:type
           rdf:resource="http://purl.org/dc/dcmitype/StillImage" /></cc:Work></rdf:RDF></metadata><defs
     id="defs107" /><sodipodi:namedview
     pagecolor="#ffffff"
     bordercolor="#666666"
     borderopacity="1"
     objecttolerance="10"
     gridtolerance="10"
     guidetolerance="10"
     inkscape:pageopacity="0"
     inkscape:pageshadow="2"
     inkscape:window-width="1345"
     inkscape:window-height="782"
     id="namedview105"
     showgrid="false"
     inkscape:zoom="1.9193642"
     inkscape:cx="14.766719"
     inkscape:cy="66.442269"
     inkscape:window-x="0"
     inkscape:window-y="0"
     inkscape:window-maximized="0"
     inkscape:current-layer="Capa_1" /><polygon
     id="polygon2"
     points="123.201,151.305 122.617,146.924 51.271,146.924 50.687,151.305 "
     style="fill:#3d2c24"
     transform="rotate(90,86.9435,86.944)" /><polygon
     id="polygon4"
     points="107.636,34.562 107.114,30.641 66.774,30.641 66.251,34.562 "
     style="fill:#3d2c24"
     transform="rotate(90,86.9435,86.944)" /><polygon
     id="polygon6"
     points="110.233,54.041 109.659,49.735 64.228,49.735 63.654,54.041 "
     style="fill:#3d2c24"
     transform="rotate(90,86.9435,86.944)" /><polygon
     id="polygon8"
     points="113.204,76.323 112.508,71.104 61.379,71.104 60.683,76.323 "
     style="fill:#3d2c24"
     transform="rotate(90,86.9435,86.944)" /><polygon
     id="polygon10"
     points="116.291,99.483 115.67,94.822 58.217,94.822 57.595,99.483 "
     style="fill:#3d2c24"
     transform="rotate(90,86.9435,86.944)" /><polygon
     id="polygon12"
     points="119.738,125.337 119.005,119.841 54.881,119.841 54.149,125.337 "
     style="fill:#3d2c24"
     transform="rotate(90,86.9435,86.944)" /><polygon
     id="polygon14"
     points="105.237,16.567 104.8,13.293 69.087,13.293 68.651,16.567 "
     style="fill:#3d2c24"
     transform="rotate(90,86.9435,86.944)" /><path
     inkscape:connector-curvature="0"
     id="path16"
     d="m 22.5825,130.0315 v -6.83 -72.514 -6.832 c 0,-2.624 -2.129,-4.754 -4.755,-4.754 H 4.7535 c -2.625,0 -4.754,2.13 -4.754,4.754 v 86.176 c 0,2.627 2.129,4.757 4.754,4.757 h 13.074 c 2.626,0 4.755,-2.13 4.755,-4.757 z M 6.9645,56.2295 c 0,-2.386 1.939,-4.325 4.327,-4.325 2.387,0 4.327,1.939 4.327,4.325 0,2.39 -1.941,4.328 -4.327,4.328 -2.387,0 -4.327,-1.938 -4.327,-4.328 z m 0,61.43 c 0,-2.389 1.939,-4.327 4.327,-4.327 2.387,0 4.327,1.938 4.327,4.327 0,2.387 -1.941,4.324 -4.327,4.324 -2.387,0 -4.327,-1.938 -4.327,-4.324 z"
     style="fill:#1e819f" /><path
     inkscape:connector-curvature="0"
     id="path18"
     d="m 15.6195,56.2295 c 0,-2.386 -1.941,-4.325 -4.327,-4.325 -2.388,0 -4.327,1.939 -4.327,4.325 0,2.39 1.939,4.328 4.327,4.328 2.386,0 4.327,-1.938 4.327,-4.328 z"
     style="fill:#ffffff" /><path
     inkscape:connector-curvature="0"
     id="path20"
     d="m 15.6195,117.6595 c 0,-2.389 -1.941,-4.327 -4.327,-4.327 -2.388,0 -4.327,1.938 -4.327,4.327 0,2.387 1.939,4.324 4.327,4.324 2.386,0 4.327,-1.938 4.327,-4.324 z"
     style="fill:#ffffff" /><path
     inkscape:connector-curvature="0"
     id="path22"
     d="m 26.9635,128.1355 c 0,2.511 2.035,4.545 4.546,4.545 h 12.496 c 2.512,0 4.545,-2.034 4.545,-4.545 v -8.397 l 0,-65.589 v -8.396 c 0,-2.512 -2.033,-4.547 -4.545,-4.547 h -12.496 c -2.511,0 -4.546,2.035 -4.546,4.547 v 5.518 71.346 z m 6.47,-69.741 c 0,-2.388 1.939,-4.326 4.326,-4.326 2.387,0 4.324,1.938 4.324,4.326 0,2.39 -1.937,4.327 -4.324,4.327 -2.387,0 -4.326,-1.937 -4.326,-4.327 z m 0,57.101 c 0,-2.39 1.939,-4.328 4.326,-4.328 2.387,0 4.324,1.938 4.324,4.328 0,2.388 -1.937,4.325 -4.324,4.325 -2.387,0 -4.326,-1.938 -4.326,-4.325 z"
     style="fill:#97c1e0" /><circle
     id="circle24"
     r="4.3249998"
     cy="-37.758503"
     cx="58.394501"
     style="fill:#ffffff"
     transform="rotate(90)" /><circle
     id="circle26"
     r="4.3249998"
     cy="-37.758503"
     cx="115.49551"
     style="fill:#ffffff"
     transform="rotate(90)" /><path
     inkscape:connector-curvature="0"
     id="path28"
     d="m 54.0465,125.7885 c 0,2.363 1.921,4.282 4.285,4.282 h 11.787 c 2.362,0 4.285,-1.919 4.285,-4.282 v -9.496 l 0,-58.697 v -9.49 c 0,-2.373 -1.923,-4.286 -4.285,-4.286 h -11.787 c -2.364,0 -4.285,1.913 -4.285,4.286 v 6.776 l 0,64.124 z m 5.853,-64.492 c 0,-2.388 1.937,-4.322 4.326,-4.322 2.389,0 4.324,1.935 4.324,4.322 0,2.39 -1.936,4.327 -4.324,4.327 -2.39,10e-4 -4.326,-1.937 -4.326,-4.327 z m 0,51.292 c 0,-2.389 1.937,-4.329 4.326,-4.329 2.389,0 4.324,1.94 4.324,4.329 0,2.386 -1.936,4.326 -4.324,4.326 -2.39,10e-4 -4.326,-1.94 -4.326,-4.326 z"
     style="fill:#a1a655" /><circle
     id="circle30"
     r="4.3249998"
     cy="-64.224495"
     cx="61.296501"
     style="fill:#ffffff"
     transform="rotate(90)" /><path
     inkscape:connector-curvature="0"
     id="path32"
     d="m 68.5495,112.5885 c 0,-2.389 -1.936,-4.329 -4.324,-4.329 -2.39,0 -4.326,1.94 -4.326,4.329 0,2.386 1.937,4.326 4.326,4.326 2.389,10e-4 4.324,-1.94 4.324,-4.326 z"
     style="fill:#ffffff" /><path
     inkscape:connector-curvature="0"
     id="path34"
     d="m 79.0655,122.2325 c 0,2.149 1.747,3.895 3.897,3.895 h 10.704 c 2.151,0 3.898,-1.745 3.898,-3.895 l 0,-9.028 v -52.521 -9.027 c 0,-2.152 -1.746,-3.896 -3.898,-3.896 h -10.705 c -2.149,0 -3.897,1.743 -3.897,3.896 v 6.561 57.453 l 0,6.562 z m 4.923,-58.772 c 0,-2.388 1.94,-4.323 4.326,-4.323 2.389,0 4.329,1.936 4.329,4.323 0,2.391 -1.94,4.327 -4.329,4.327 -2.386,0.001 -4.326,-1.936 -4.326,-4.327 z m 0,46.963 c 0,-2.387 1.94,-4.326 4.326,-4.326 2.389,0 4.329,1.939 4.329,4.326 0,2.386 -1.94,4.328 -4.329,4.328 -2.386,0 -4.326,-1.942 -4.326,-4.328 z"
     style="fill:#e97b4a" /><path
     inkscape:connector-curvature="0"
     id="path36"
     d="m 92.6435,63.4605 c 0,-2.388 -1.94,-4.323 -4.329,-4.323 -2.386,0 -4.326,1.936 -4.326,4.323 0,2.391 1.94,4.327 4.326,4.327 2.388,0.001 4.329,-1.936 4.329,-4.327 z"
     style="fill:#ffffff" /><path
     inkscape:connector-curvature="0"
     id="path38"
     d="m 88.3145,114.7515 c 2.389,0 4.329,-1.942 4.329,-4.328 0,-2.387 -1.94,-4.326 -4.329,-4.326 -2.386,0 -4.326,1.939 -4.326,4.326 0,2.386 1.94,4.328 4.326,4.328 z"
     style="fill:#ffffff" /><path
     inkscape:connector-curvature="0"
     id="path40"
     d="m 102.7835,119.5065 c 0,1.982 1.604,3.589 3.591,3.589 h 9.88 c 1.984,0 3.592,-1.606 3.592,-3.589 v -9.274 -46.578 -9.27 c 0,-1.984 -1.607,-3.594 -3.592,-3.594 l -9.88,0 c -1.986,0 -3.591,1.609 -3.591,3.594 v 6.995 51.129 z m 4.207,-53.882 c 0,-2.387 1.937,-4.326 4.326,-4.326 2.387,0 4.323,1.94 4.323,4.326 0,2.389 -1.937,4.329 -4.323,4.329 -2.39,0 -4.326,-1.941 -4.326,-4.329 z m 0,42.638 c 0,-2.389 1.937,-4.326 4.326,-4.326 2.387,0 4.323,1.938 4.323,4.326 0,2.386 -1.937,4.326 -4.323,4.326 -2.39,0 -4.326,-1.94 -4.326,-4.326 z"
     style="fill:#ea929f" /><circle
     id="circle42"
     r="4.3249998"
     cy="-111.3145"
     cx="65.624504"
     style="fill:#ffffff"
     transform="rotate(90)" /><path
     inkscape:connector-curvature="0"
     id="path44"
     d="m 111.3165,112.5885 c 2.387,0 4.323,-1.94 4.323,-4.326 0,-2.389 -1.937,-4.326 -4.323,-4.326 -2.39,0 -4.326,1.938 -4.326,4.326 0,2.386 1.936,4.326 4.326,4.326 z"
     style="fill:#ffffff" /><path
     inkscape:connector-curvature="0"
     id="path46"
     d="m 124.1525,115.8985 c 0,1.763 1.432,3.191 3.194,3.191 h 8.787 c 1.762,0 3.192,-1.429 3.192,-3.191 v -8.262 -41.385 l 0,-8.26 c 0,-1.764 -1.431,-3.192 -3.192,-3.192 h -8.787 c -1.763,0 -3.194,1.429 -3.194,3.192 l 0,6.236 v 45.431 z m 3.262,-47.304 c 0,-2.386 1.935,-4.326 4.324,-4.326 2.39,0 4.324,1.94 4.324,4.326 0,2.39 -1.935,4.327 -4.324,4.327 -2.388,0 -4.324,-1.937 -4.324,-4.327 z m 0,36.696 c 0,-2.387 1.935,-4.325 4.324,-4.325 2.39,0 4.324,1.938 4.324,4.325 0,2.388 -1.935,4.327 -4.324,4.327 -2.388,0 -4.324,-1.94 -4.324,-4.327 z"
     style="fill:#fccf46" /><path
     inkscape:connector-curvature="0"
     id="path48"
     d="m 136.0635,68.5945 c 0,-2.386 -1.935,-4.326 -4.324,-4.326 -2.389,0 -4.324,1.94 -4.324,4.326 0,2.39 1.935,4.327 4.324,4.327 2.389,0 4.324,-1.937 4.324,-4.327 z"
     style="fill:#ffffff" /><circle
     id="circle50"
     r="4.3260002"
     cy="-131.7395"
     cx="105.2905"
     style="fill:#ffffff"
     transform="rotate(90)" /><path
     inkscape:connector-curvature="0"
     id="path52"
     d="m 143.2465,113.7945 c 0,1.634 1.326,2.963 2.963,2.963 h 8.146 c 1.636,0 2.964,-1.329 2.964,-2.963 v -8.558 -36.585 -8.559 c 0,-1.639 -1.328,-2.962 -2.964,-2.962 h -8.146 c -1.637,0 -2.963,1.323 -2.963,2.962 v 6.682 40.34 z m 2.709,-43.036 c 0,-2.386 1.938,-4.329 4.324,-4.329 2.391,0 4.329,1.943 4.329,4.329 0,2.387 -1.939,4.327 -4.329,4.327 -2.385,0 -4.324,-1.94 -4.324,-4.327 z m 0,32.371 c 0,-2.391 1.938,-4.328 4.324,-4.328 2.391,0 4.329,1.938 4.329,4.328 0,2.387 -1.939,4.323 -4.329,4.323 -2.385,0.001 -4.324,-1.936 -4.324,-4.323 z"
     style="fill:#d2444e" /><path
     inkscape:connector-curvature="0"
     id="path54"
     d="m 154.6095,70.7585 c 0,-2.386 -1.939,-4.329 -4.329,-4.329 -2.386,0 -4.324,1.943 -4.324,4.329 0,2.387 1.938,4.327 4.324,4.327 2.39,0 4.329,-1.94 4.329,-4.327 z"
     style="fill:#ffffff" /><path
     inkscape:connector-curvature="0"
     id="path56"
     d="m 150.2805,107.4535 c 2.391,0 4.329,-1.937 4.329,-4.323 0,-2.391 -1.939,-4.328 -4.329,-4.328 -2.386,0 -4.324,1.938 -4.324,4.328 -0.001,2.386 1.938,4.323 4.324,4.323 z"
     style="fill:#ffffff" /><path
     inkscape:connector-curvature="0"
     id="path58"
     d="m 160.5945,112.3045 c 0,1.542 1.253,2.795 2.798,2.795 h 7.694 c 1.547,0 2.801,-1.253 2.801,-2.795 v -50.72 c 0,-1.543 -1.254,-2.796 -2.801,-2.796 h -7.694 c -1.545,0 -2.798,1.253 -2.798,2.796 v 7.503 35.713 z m 2.321,-38.872 c 0,-2.386 1.938,-4.326 4.325,-4.326 2.389,0 4.324,1.94 4.324,4.326 0,2.387 -1.936,4.327 -4.324,4.327 -2.387,0 -4.325,-1.94 -4.325,-4.327 z m 0,27.024 c 0,-2.392 1.938,-4.327 4.325,-4.327 2.389,0 4.324,1.936 4.324,4.327 0,2.387 -1.936,4.323 -4.324,4.323 -2.387,0 -4.325,-1.937 -4.325,-4.323 z"
     style="fill:#3ad8e9" /><path
     inkscape:connector-curvature="0"
     id="path60"
     d="m 171.5655,73.4325 c 0,-2.386 -1.936,-4.326 -4.324,-4.326 -2.388,0 -4.325,1.94 -4.325,4.326 0,2.387 1.938,4.327 4.325,4.327 2.388,0 4.324,-1.94 4.324,-4.327 z"
     style="fill:#ffffff" /><path
     inkscape:connector-curvature="0"
     id="path62"
     d="m 167.2405,104.7795 c 2.389,0 4.324,-1.937 4.324,-4.323 0,-2.392 -1.936,-4.327 -4.324,-4.327 -2.388,0 -4.325,1.936 -4.325,4.327 0,2.386 1.938,4.323 4.325,4.323 z"
     style="fill:#ffffff" /><g
     id="g3837"
     transform="translate(-0.781509)"><path
       style="fill:#3d2c24"
       d="M 123.13552,176.58131 H 37.803518 c -1.476,0 -2.675,1.196 -2.675,2.674 0,1.477 1.198,2.675 2.675,2.675 h 85.333002 c -0.247,-0.85 -0.387,-1.745 -0.387,-2.675 0,-0.929 0.138,-1.824 0.386,-2.674 z"
       id="path64"
       inkscape:connector-curvature="0" /><path
       style="fill:#3ad8e9"
       d="m 141.88352,179.25531 c 0,-5.284 -4.283,-9.567 -9.566,-9.567 -4.354,0 -8.023,2.912 -9.182,6.894 -0.247,0.85 -0.386,1.745 -0.386,2.674 0,0.93 0.14,1.825 0.387,2.675 1.158,3.981 4.827,6.892 9.181,6.892 5.282,-0.001 9.566,-4.284 9.566,-9.568 z"
       id="path66"
       inkscape:connector-curvature="0" /></g><g
     id="g3841"
     transform="translate(0.78151)"><path
       style="fill:#3d2c24"
       d="m 52.3135,158.2995 h 85.333 c 1.477,0 2.674,-1.197 2.674,-2.674 0,-1.479 -1.197,-2.676 -2.674,-2.676 h -85.333 c 0.247,0.85 0.387,1.746 0.387,2.676 -10e-4,0.929 -0.139,1.825 -0.387,2.674 z"
       id="path68"
       inkscape:connector-curvature="0" /><path
       style="fill:#3ad8e9"
       d="m 52.3135,158.2995 c 0.248,-0.85 0.387,-1.745 0.387,-2.674 0,-0.93 -0.14,-1.826 -0.387,-2.676 -1.158,-3.98 -4.826,-6.892 -9.18,-6.892 -5.284,0 -9.568,4.282 -9.568,9.567 0,5.282 4.284,9.566 9.568,9.566 4.354,0.001 8.023,-2.911 9.18,-6.891 z"
       id="path70"
       inkscape:connector-curvature="0" /></g><g
     id="g74" /><g
     id="g76" /><g
     id="g78" /><g
     id="g80" /><g
     id="g82" /><g
     id="g84" /><g
     id="g86" /><g
     id="g88" /><g
     id="g90" /><g
     id="g92" /><g
     id="g94" /><g
     id="g96" /><g
     id="g98" /><g
     id="g100" /><g
     id="g102" /></svg>